<svg width="24" height="24" viewBox="0 0 24 24" fill="none" xmlns="http://www.w3.org/2000/svg">
    <path fill-rule="evenodd" clip-rule="evenodd"
          d="M16.5276 14.5991C15.1069 14.5991 13.9562 13.4477 13.9562 12.0276C13.9562 10.6076 15.1069 9.45621 16.5276 9.45621C17.9477 9.45621 19.0991 10.6076 19.0991 12.0276C19.0991 13.4477 17.9477 14.5991 16.5276 14.5991ZM14.0494 18.093L12.5111 16.5546L14.0501 15.0163C14.3728 15.4464 14.5714 15.9754 14.5714 16.5546C14.5714 17.1339 14.3728 17.6629 14.0494 18.093ZM12 19.1261C11.4208 19.1261 10.8917 18.9274 10.4616 18.6041L12 17.0664L13.5384 18.6041C13.1083 18.9274 12.5792 19.1261 12 19.1261ZM9.95057 15.0163L11.4889 16.5546L9.95057 18.093C9.62721 17.6629 9.42857 17.1339 9.42857 16.5546C9.42857 15.9754 9.62721 15.4464 9.95057 15.0163ZM7.473 14.5991C6.05229 14.5991 4.90157 13.4477 4.90157 12.0276C4.90157 10.6076 6.05229 9.45621 7.473 9.45621C8.89307 9.45621 10.0444 10.6076 10.0444 12.0276C10.0444 13.4477 8.89307 14.5991 7.473 14.5991ZM9.95057 5.96164L11.4889 7.5L9.95057 9.03836C9.62721 8.60829 9.42857 8.07921 9.42857 7.5C9.42857 6.92079 9.62721 6.39171 9.95057 5.96164ZM12 4.92857C12.5792 4.92857 13.1083 5.12721 13.5384 5.45057L12 6.98893L10.4616 5.45057C10.8917 5.12721 11.4208 4.92857 12 4.92857ZM10.4616 9.54943L12 8.01107L13.5384 9.54943C13.1083 9.87279 12.5792 10.0714 12 10.0714C11.4208 10.0714 10.8917 9.87279 10.4616 9.54943ZM12 13.9832C12.5792 13.9832 13.1083 14.1825 13.5384 14.5052L12 16.0436L10.4616 14.5052C10.8917 14.1825 11.4208 13.9832 12 13.9832ZM14.5714 7.5C14.5714 8.07921 14.3728 8.60829 14.0494 9.03836L12.5111 7.5L14.0501 5.96164C14.3728 6.39171 14.5714 6.92079 14.5714 7.5ZM12 3C7.02943 3 3 7.02943 3 12C3 16.9706 7.02943 21 12 21C16.9706 21 21 16.9706 21 12C21 7.02943 16.9706 3 12 3Z"
          fill="#263543"/>
</svg>
