<svg width="24" height="24" viewBox="0 0 24 24" fill="none" xmlns="http://www.w3.org/2000/svg">
    <path fill-rule="evenodd" clip-rule="evenodd"
          d="M12 21C16.9706 21 21 16.9706 21 12C21 7.02944 16.9706 3 12 3C7.02944 3 3 7.02944 3 12C3 16.9706 7.02944 21 12 21ZM9.75 12C9.75 12.8284 9.07843 13.5 8.25 13.5C7.42157 13.5 6.75 12.8284 6.75 12C6.75 11.1716 7.42157 10.5 8.25 10.5C9.07843 10.5 9.75 11.1716 9.75 12ZM17.25 12C17.25 12.8284 16.5784 13.5 15.75 13.5C14.9216 13.5 14.25 12.8284 14.25 12C14.25 11.1716 14.9216 10.5 15.75 10.5C16.5784 10.5 17.25 11.1716 17.25 12Z"
          fill="#263543"/>
</svg>
