<svg width="24" height="24" viewBox="0 0 24 24" fill="none" xmlns="http://www.w3.org/2000/svg">
    <path fill-rule="evenodd" clip-rule="evenodd"
          d="M16.1786 14.6778C15.0246 14.6778 14.0893 13.7481 14.0893 12.6009C14.0893 11.4545 15.0246 10.524 16.1786 10.524C17.3326 10.524 18.2679 11.4545 18.2679 12.6009C18.2679 13.7481 17.3326 14.6778 16.1786 14.6778ZM15.4821 18.4855C14.9055 18.4855 14.4375 18.021 14.4375 17.4471C14.4375 16.8738 14.9055 16.4086 15.4821 16.4086C16.0588 16.4086 16.5268 16.8738 16.5268 17.4471C16.5268 18.021 16.0588 18.4855 15.4821 18.4855ZM12 18.8317C11.2311 18.8317 10.6071 18.2121 10.6071 17.4471C10.6071 16.6828 11.2311 16.0625 12 16.0625C12.7689 16.0625 13.3929 16.6828 13.3929 17.4471C13.3929 18.2121 12.7689 18.8317 12 18.8317ZM7.82143 14.6778C6.66745 14.6778 5.73214 13.7481 5.73214 12.6009C5.73214 11.4545 6.66745 10.524 7.82143 10.524C8.97541 10.524 9.91071 11.4545 9.91071 12.6009C9.91071 13.7481 8.97541 14.6778 7.82143 14.6778ZM8.51786 18.4855C7.94052 18.4855 7.47321 18.021 7.47321 17.4471C7.47321 16.8738 7.94052 16.4086 8.51786 16.4086C9.0952 16.4086 9.5625 16.8738 9.5625 17.4471C9.5625 18.021 9.0952 18.4855 8.51786 18.4855ZM8.51786 6.024C9.0952 6.024 9.5625 6.48923 9.5625 7.06246C9.5625 7.63638 9.0952 8.10092 8.51786 8.10092C7.94052 8.10092 7.47321 7.63638 7.47321 7.06246C7.47321 6.48923 7.94052 6.024 8.51786 6.024ZM12 9.48554C12.5773 9.48554 13.0446 9.95077 13.0446 10.524C13.0446 11.0979 12.5773 11.5625 12 11.5625C11.4227 11.5625 10.9554 11.0979 10.9554 10.524C10.9554 9.95077 11.4227 9.48554 12 9.48554ZM12 6.024C12.5773 6.024 13.0446 6.48923 13.0446 7.06246C13.0446 7.63638 12.5773 8.10092 12 8.10092C11.4227 8.10092 10.9554 7.63638 10.9554 7.06246C10.9554 6.48923 11.4227 6.024 12 6.024ZM15.4821 6.024C16.0588 6.024 16.5268 6.48923 16.5268 7.06246C16.5268 7.63638 16.0588 8.10092 15.4821 8.10092C14.9055 8.10092 14.4375 7.63638 14.4375 7.06246C14.4375 6.48923 14.9055 6.024 15.4821 6.024ZM17.7943 3H17.6439V4.40518H6.40211V3H6.20502C3.80582 4.81709 2.25 7.73378 2.25 11.0227C2.25 16.5335 6.61521 21 12 21C17.3848 21 21.75 16.5335 21.75 11.0227C21.75 7.73378 20.1935 4.81709 17.7943 3Z"
          fill="#263543"/>
</svg>
