<svg width="24" height="24" viewBox="0 0 24 24" fill="none" xmlns="http://www.w3.org/2000/svg">
    <path fill-rule="evenodd" clip-rule="evenodd"
          d="M17.5714 13.6526C16.4174 13.6526 15.4821 12.6922 15.4821 11.509C15.4821 10.325 16.4174 9.36543 17.5714 9.36543C18.7254 9.36543 19.6607 10.325 19.6607 11.509C19.6607 12.6922 18.7254 13.6526 17.5714 13.6526ZM14.7857 18.6542C13.6317 18.6542 12.6964 17.6939 12.6964 16.5107C12.6964 15.3267 13.6317 14.3671 14.7857 14.3671C15.9397 14.3671 16.875 15.3267 16.875 16.5107C16.875 17.6939 15.9397 18.6542 14.7857 18.6542ZM9.91071 11.509C9.91071 10.325 10.846 9.36543 12 9.36543C13.154 9.36543 14.0893 10.325 14.0893 11.509C14.0893 12.6922 13.154 13.6526 12 13.6526C10.846 13.6526 9.91071 12.6922 9.91071 11.509ZM9.21429 18.6542C8.0603 18.6542 7.125 17.6939 7.125 16.5107C7.125 15.3267 8.0603 14.3671 9.21429 14.3671C10.3683 14.3671 11.3036 15.3267 11.3036 16.5107C11.3036 17.6939 10.3683 18.6542 9.21429 18.6542ZM4.33929 11.509C4.33929 10.325 5.27459 9.36543 6.42857 9.36543C7.58255 9.36543 8.51786 10.325 8.51786 11.509C8.51786 12.6922 7.58255 13.6526 6.42857 13.6526C5.27459 13.6526 4.33929 12.6922 4.33929 11.509ZM9.21429 5.79282C9.98314 5.79282 10.6071 6.43303 10.6071 7.22186C10.6071 8.0107 9.98314 8.65091 9.21429 8.65091C8.44543 8.65091 7.82143 8.0107 7.82143 7.22186C7.82143 6.43303 8.44543 5.79282 9.21429 5.79282ZM14.7857 5.79282C15.5546 5.79282 16.1786 6.43303 16.1786 7.22186C16.1786 8.0107 15.5546 8.65091 14.7857 8.65091C14.0169 8.65091 13.3929 8.0107 13.3929 7.22186C13.3929 6.43303 14.0169 5.79282 14.7857 5.79282ZM18.7205 3.75H5.27877C3.41304 5.57203 2.25 8.14503 2.25 10.9967C2.25 16.5214 6.61521 21 12 21C17.3848 21 21.75 16.5214 21.75 10.9967C21.75 8.14503 20.587 5.57203 18.7205 3.75Z"
          fill="#263543"/>
</svg>
