<svg width="24" height="24" viewBox="0 0 24 24" fill="none" xmlns="http://www.w3.org/2000/svg">
    <path fill-rule="evenodd" clip-rule="evenodd"
          d="M16.149 13.5607C15.0018 13.5607 14.0721 12.6247 14.0721 11.4714C14.0721 10.3174 15.0018 9.38213 16.149 9.38213C17.2962 9.38213 18.2259 10.3174 18.2259 11.4714C18.2259 12.6247 17.2962 13.5607 16.149 13.5607ZM16.8413 17.0428C16.4592 17.0428 16.149 16.7315 16.149 16.3464C16.149 15.962 16.4592 15.65 16.8413 15.65C17.2235 15.65 17.5336 15.962 17.5336 16.3464C17.5336 16.7315 17.2235 17.0428 16.8413 17.0428ZM12 19.1321C10.8528 19.1321 9.92308 18.1961 9.92308 17.0428C9.92308 15.8888 10.8528 14.9535 12 14.9535C13.1472 14.9535 14.0769 15.8888 14.0769 17.0428C14.0769 18.1961 13.1472 19.1321 12 19.1321ZM7.84131 13.5607C6.69415 13.5607 5.76438 12.6247 5.76438 11.4714C5.76438 10.3174 6.69415 9.38213 7.84131 9.38213C8.98846 9.38213 9.91823 10.3174 9.91823 11.4714C9.91823 12.6247 8.98846 13.5607 7.84131 13.5607ZM12 5.60053C12.7636 5.60053 13.3846 6.22523 13.3846 6.99339C13.3846 7.76294 12.7636 8.38624 12 8.38624C11.2357 8.38624 10.6154 7.76294 10.6154 6.99339C10.6154 6.22523 11.2357 5.60053 12 5.60053ZM12.0755 2.25003C8.265 2.24167 4.91838 4.26966 3.02423 7.32489L3.01731 10.8836L3.00762 13.076L3 16.6347C4.88031 19.6983 8.21792 21.7416 12.0291 21.75C15.7696 21.7583 19.0636 19.8042 20.9744 16.8423L20.982 13.1157L20.9917 10.924L21 7.19744C19.1017 4.22718 15.8174 2.25838 12.0755 2.25003Z"
          fill="#263543"/>
</svg>
