<svg xmlns="http://www.w3.org/2000/svg" width="100" height="117.5">
    <path d="M53.292 115.415c5.463-10.69 15.915-17.7 25.69-24.665C91.705 81.683 100 66.81 100 50c0-27.615-22.385-50-50-50S0 22.385 0 50c0 16.81 8.295 31.683 21.017 40.747 9.778 6.968 20.228 13.976 25.691 24.665 1.422 2.783 5.162 2.783 6.584 0z"
          fill="#1988cf"/>
    <path d="M76.082 86.675C87.543 78.51 95 65.125 95 50 95 25.148 74.853 5 50 5S5 25.148 5 50c0 15.125 7.458 28.51 18.917 36.675l1.891 1.343c8.477 6.004 18.269 12.945 24.192 23.01 5.92-10.065 15.715-17.003 24.192-23.01l1.89-1.343zm1.223 5.265c-9.275 6.585-18.86 13.393-24.013 23.472-1.422 2.783-5.162 2.783-6.584 0-5.151-10.079-14.738-16.887-24.013-23.472l-1.68-1.193C8.295 81.683 0 66.81 0 50 0 22.385 22.385 0 50 0s50 22.385 50 50c0 16.81-8.295 31.683-21.018 40.747l-1.68 1.193z"
          fill-opacity=".3"/>
</svg>
