<svg width="24" height="24" viewBox="0 0 24 24" fill="none" xmlns="http://www.w3.org/2000/svg">
    <path fill-rule="evenodd" clip-rule="evenodd"
          d="M16.1067 13.4406C15.0303 13.4406 14.1567 12.5766 14.1567 11.5121C14.1567 10.4475 15.0303 9.58351 16.1067 9.58351C17.1838 9.58351 18.0567 10.4475 18.0567 11.5121C18.0567 12.5766 17.1838 13.4406 16.1067 13.4406ZM8.3067 13.4406C7.22965 13.4406 6.3567 12.5766 6.3567 11.5121C6.3567 10.4475 7.22965 9.58351 8.3067 9.58351C9.38375 9.58351 10.2567 10.4475 10.2567 11.5121C10.2567 12.5766 9.38375 13.4406 8.3067 13.4406ZM20.6567 9.62336L20.6613 7.56687C18.8796 4.82509 15.7954 3.00774 12.2828 3.00002C8.7045 2.99231 5.5624 4.8643 3.78465 7.68451L3.78075 9.62336H2.25V13.4805H3.76775L3.76125 16.2782C5.5273 19.1061 8.6603 20.9923 12.2386 21C15.7512 21.0077 18.8432 19.2038 20.6378 16.4698L20.6437 13.4805H21.75V9.62336H20.6567Z"
          fill="#263543"/>
</svg>
