<svg width="24" height="24" viewBox="0 0 24 24" fill="none" xmlns="http://www.w3.org/2000/svg">
    <path fill-rule="evenodd" clip-rule="evenodd"
          d="M15.4567 15.4897C14.0379 15.4897 12.8881 14.3528 12.8881 12.9499C12.8881 11.5478 14.0379 10.4109 15.4567 10.4109C16.8755 10.4109 18.0253 11.5478 18.0253 12.9499C18.0253 14.3528 16.8755 15.4897 15.4567 15.4897ZM11.6041 9.3102C10.7179 9.3102 9.99954 8.59989 9.99954 7.72366C9.99954 6.84669 10.7179 6.13637 11.6041 6.13637C12.491 6.13637 13.2094 6.84669 13.2094 7.72366C13.2094 8.59989 12.491 9.3102 11.6041 9.3102ZM7.75226 14.5372C6.86533 14.5372 6.14695 13.8269 6.14695 12.9499C6.14695 12.0737 6.86533 11.3634 7.75226 11.3634C8.63844 11.3634 9.35682 12.0737 9.35682 12.9499C9.35682 13.8269 8.63844 14.5372 7.75226 14.5372ZM12.0004 2.25C7.02938 2.25 3 6.23488 3 11.1501C3 15.169 5.69674 18.5636 9.39877 19.6679C9.65421 20.8567 10.7209 21.75 12.0004 21.75C13.2798 21.75 14.3465 20.8567 14.602 19.6679C18.304 18.5636 21 15.169 21 11.1501C21 6.23488 16.9706 2.25 12.0004 2.25Z"
          fill="#263543"/>
</svg>
