<svg width="24" height="24" viewBox="0 0 24 24" fill="none" xmlns="http://www.w3.org/2000/svg">
    <path fill-rule="evenodd" clip-rule="evenodd"
          d="M16.3502 11.6786H14.079V9.91714V7.39971V6.53571H16.3502V11.6786ZM13.9286 18.1071H10.0714V16.1786C10.0714 15.1134 10.9354 14.25 12 14.25C13.0659 14.25 13.9286 15.1134 13.9286 16.1786V18.1071ZM6.0645 10.56V8.04257H8.29329V6.53571H10.5645V11.6786H8.29329V10.56H6.0645ZM12 3C7.02943 3 3 7.02943 3 12C3 16.9699 7.02943 21 12 21C16.9712 21 21 16.9699 21 12C21 7.02943 16.9712 3 12 3Z"
          fill="#263543"/>
</svg>
