<svg width="24" height="24" viewBox="0 0 24 24" fill="none" xmlns="http://www.w3.org/2000/svg">
    <path fill-rule="evenodd" clip-rule="evenodd"
          d="M16.0909 11.3036C15.3382 11.3036 14.7273 10.6796 14.7273 9.91071C14.7273 9.14116 15.3382 8.51786 16.0909 8.51786C16.8436 8.51786 17.4545 9.14116 17.4545 9.91071C17.4545 10.6796 16.8436 11.3036 16.0909 11.3036ZM16.0909 15.4821C15.3382 15.4821 14.7273 14.8581 14.7273 14.0893C14.7273 13.3204 15.3382 12.6964 16.0909 12.6964C16.8436 12.6964 17.4545 13.3204 17.4545 14.0893C17.4545 14.8581 16.8436 15.4821 16.0909 15.4821ZM12 19.6607C11.2473 19.6607 10.6364 19.0367 10.6364 18.2679C10.6364 17.499 11.2473 16.875 12 16.875C12.7527 16.875 13.3636 17.499 13.3636 18.2679C13.3636 19.0367 12.7527 19.6607 12 19.6607ZM9.27273 18.9643C8.89636 18.9643 8.59091 18.6523 8.59091 18.2679C8.59091 17.8827 8.89636 17.5714 9.27273 17.5714C9.64909 17.5714 9.95455 17.8827 9.95455 18.2679C9.95455 18.6523 9.64909 18.9643 9.27273 18.9643ZM6.54545 14.0893C6.54545 13.3204 7.15636 12.6964 7.90909 12.6964C8.66182 12.6964 9.27273 13.3204 9.27273 14.0893C9.27273 14.8581 8.66182 15.4821 7.90909 15.4821C7.15636 15.4821 6.54545 14.8581 6.54545 14.0893ZM7.90909 8.51786C8.66182 8.51786 9.27273 9.14116 9.27273 9.91071C9.27273 10.6796 8.66182 11.3036 7.90909 11.3036C7.15636 11.3036 6.54545 10.6796 6.54545 9.91071C6.54545 9.14116 7.15636 8.51786 7.90909 8.51786ZM7.90909 5.73214C8.28546 5.73214 8.59091 6.04345 8.59091 6.42857C8.59091 6.813 8.28546 7.125 7.90909 7.125C7.53273 7.125 7.22727 6.813 7.22727 6.42857C7.22727 6.04345 7.53273 5.73214 7.90909 5.73214ZM16.0909 5.73214C16.4673 5.73214 16.7727 6.04345 16.7727 6.42857C16.7727 6.813 16.4673 7.125 16.0909 7.125C15.7139 7.125 15.4091 6.813 15.4091 6.42857C15.4091 6.04345 15.7139 5.73214 16.0909 5.73214ZM19.4898 6.69739C19.382 4.23064 16.0745 2.25 12 2.25C7.92614 2.25 4.61795 4.23064 4.51023 6.69739H4.5V17.1793C4.5 19.7039 7.85795 21.75 12 21.75C16.142 21.75 19.5 19.7039 19.5 17.1793V6.69739H19.4898Z"
          fill="#263543"/>
</svg>
