<svg width="24" height="24" viewBox="0 0 24 24" fill="none" xmlns="http://www.w3.org/2000/svg">
    <path fill-rule="evenodd" clip-rule="evenodd"
          d="M12 1.5C11.1081 1.5 10.3374 1.93248 9.97337 2.55953C7.23566 3.42016 5.25 5.97819 5.25 9C5.25 11.939 7.12832 14.4393 9.75 15.3659V16.5H7.5C5.84315 16.5 4.5 17.8431 4.5 19.5C4.5 21.1569 5.84315 22.5 7.5 22.5H16.5C18.1569 22.5 19.5 21.1569 19.5 19.5C19.5 17.8431 18.1569 16.5 16.5 16.5H14.25V15.3659C16.8717 14.4393 18.75 11.939 18.75 9C18.75 5.97819 16.7643 3.42016 14.0266 2.55953C13.6626 1.93248 12.8919 1.5 12 1.5ZM16.5 6.75C16.5 7.57843 15.8284 8.25 15 8.25C14.1716 8.25 13.5 7.57843 13.5 6.75C13.5 5.92157 14.1716 5.25 15 5.25C15.8284 5.25 16.5 5.92157 16.5 6.75ZM7.5 21.75C8.74264 21.75 9.75 20.7426 9.75 19.5C9.75 18.2574 8.74264 17.25 7.5 17.25C6.25736 17.25 5.25 18.2574 5.25 19.5C5.25 20.7426 6.25736 21.75 7.5 21.75ZM16.5 21.75C17.7426 21.75 18.75 20.7426 18.75 19.5C18.75 18.2574 17.7426 17.25 16.5 17.25C15.2574 17.25 14.25 18.2574 14.25 19.5C14.25 20.7426 15.2574 21.75 16.5 21.75ZM9 8.25C9.82843 8.25 10.5 7.57843 10.5 6.75C10.5 5.92157 9.82843 5.25 9 5.25C8.17157 5.25 7.5 5.92157 7.5 6.75C7.5 7.57843 8.17157 8.25 9 8.25ZM13.5 12C13.5 12.8284 12.8284 13.5 12 13.5C11.1716 13.5 10.5 12.8284 10.5 12C10.5 11.1716 11.1716 10.5 12 10.5C12.8284 10.5 13.5 11.1716 13.5 12ZM16.125 12C16.7463 12 17.25 11.4963 17.25 10.875C17.25 10.2537 16.7463 9.75 16.125 9.75C15.5037 9.75 15 10.2537 15 10.875C15 11.4963 15.5037 12 16.125 12ZM9 10.875C9 11.4963 8.49632 12 7.875 12C7.25368 12 6.75 11.4963 6.75 10.875C6.75 10.2537 7.25368 9.75 7.875 9.75C8.49632 9.75 9 10.2537 9 10.875Z"
          fill="#263543"/>
</svg>
