<svg width="24" height="24" viewBox="0 0 24 24" fill="none" xmlns="http://www.w3.org/2000/svg">
    <path fill-rule="evenodd" clip-rule="evenodd"
          d="M12 21C16.9706 21 21 16.9706 21 12C21 7.02944 16.9706 3 12 3C7.02944 3 3 7.02944 3 12C3 16.9706 7.02944 21 12 21ZM10.6937 14.384V13.9764C10.6937 13.3855 10.8018 12.8951 11.018 12.5052C11.2342 12.1152 11.4715 11.7548 11.7297 11.4239C11.988 11.0931 12.2252 10.7681 12.4414 10.449C12.6577 10.13 12.7658 9.74594 12.7658 9.2969C12.7658 8.80059 12.6096 8.41064 12.2973 8.12703C11.985 7.84343 11.5526 7.70162 11 7.70162C10.5315 7.70162 10.1502 7.76071 9.85586 7.87888C9.56156 7.99705 9.31231 8.11521 9.10811 8.23338L9 6.46086C9.24024 6.36632 9.57357 6.26588 10 6.15953C10.4264 6.05318 10.9039 6 11.4324 6C11.9369 6 12.4054 6.05613 12.8378 6.16839C13.2703 6.28065 13.6486 6.4579 13.973 6.70015C14.2973 6.94239 14.5495 7.24963 14.7297 7.62186C14.9099 7.99409 15 8.44017 15 8.96012C15 9.35008 14.9399 9.70162 14.8198 10.0148C14.6997 10.3279 14.5496 10.6204 14.3694 10.8922C14.1892 11.164 13.991 11.421 13.7748 11.6632C13.5586 11.9055 13.3604 12.1507 13.1802 12.3988C13 12.647 12.8499 12.9069 12.7297 13.1787C12.6096 13.4505 12.5495 13.7459 12.5495 14.065V14.384H10.6937ZM12.8513 16.875C12.8513 17.4963 12.3477 18 11.7263 18C11.105 18 10.6013 17.4963 10.6013 16.875C10.6013 16.2537 11.105 15.75 11.7263 15.75C12.3477 15.75 12.8513 16.2537 12.8513 16.875Z"
          fill="#263543"/>
</svg>
