<svg xmlns="http://www.w3.org/2000/svg" width="120" height="140">
    <!-- Custom EV charging station icon - Unavailable variant -->
    <path id="background" d="M63.95 137.516c6.556-12.737 19.098-21.09 30.828-29.388C110.046 97.324 120 79.603 120 59.574 120 26.671 93.138 0 60 0S0 26.671 0 59.574c0 20.029 9.954 37.75 25.22 48.55 11.734 8.302 24.274 16.652 30.83 29.388 1.706 3.316 6.194 3.316 7.9 0z"
          fill="#00D166"/>
    <path id="outline" d="M91.298 103.272C105.052 93.544 114 77.596 114 59.574c0-29.61-24.176-53.617-54-53.617S6 29.964 6 59.574c0 18.022 8.95 33.97 22.7 43.698l2.27 1.601c10.172 7.153 21.922 15.423 29.03 27.416 7.104-11.993 18.858-20.259 29.03-27.416l2.268-1.601zm1.468 6.274c-11.13 7.845-22.632 15.957-28.816 27.966-1.706 3.316-6.194 3.316-7.9 0-6.182-12.009-17.686-20.121-28.816-27.966l-2.016-1.422C9.954 97.324 0 79.603 0 59.574 0 26.671 26.862 0 60 0s60 26.671 60 59.574c0 20.029-9.954 37.75-25.222 48.55l-2.016 1.422z"
          fill-opacity=".3"/>
    <!-- Centered lightning bolt -->
    <polygon points="65,35 39,65 57,67 55,85 81,55 63,53" fill="white"/>
    <!-- Availability indicator circle - Red -->
    <circle id="availability" cx="17" cy="17" r="15" fill="#FF0000" stroke="#263543" stroke-width="4"/>
</svg>
