<svg width="24" height="24" viewBox="0 0 24 24" fill="none" xmlns="http://www.w3.org/2000/svg">
    <path fill-rule="evenodd" clip-rule="evenodd"
          d="M15.8524 9.35417C14.9655 9.35417 14.2472 8.64383 14.2472 7.76683C14.2472 6.89056 14.9655 6.18022 15.8524 6.18022C16.7393 6.18022 17.4584 6.89056 17.4584 7.76683C17.4584 8.64383 16.7393 9.35417 15.8524 9.35417ZM12 17.1554C10.582 17.1554 9.43221 16.0184 9.43221 14.6162C9.43221 13.2133 10.582 12.077 12 12.077C13.4187 12.077 14.5685 13.2133 14.5685 14.6162C14.5685 16.0184 13.4187 17.1554 12 17.1554ZM8.14757 9.35417C7.26142 9.35417 6.54307 8.64383 6.54307 7.76683C6.54307 6.89056 7.26142 6.18022 8.14757 6.18022C9.03446 6.18022 9.75281 6.89056 9.75281 7.76683C9.75281 8.64383 9.03446 9.35417 8.14757 9.35417ZM12 2.25C7.02996 2.25 3 6.23429 3 11.1497C3 15.1702 5.69738 18.5642 9.3985 19.6679C9.65468 20.8574 10.7213 21.75 12 21.75C13.2794 21.75 14.3461 20.8574 14.6022 19.6679C18.3034 18.5642 21 15.1702 21 11.1497C21 6.23429 16.9708 2.25 12 2.25Z"
          fill="#263543"/>
</svg>
