<svg width="24" height="24" viewBox="0 0 24 24" fill="none" xmlns="http://www.w3.org/2000/svg">
    <path fill-rule="evenodd" clip-rule="evenodd"
          d="M18.4566 16.8586C18.2254 14.8153 15.4271 13.2004 12 13.2004C8.57357 13.2004 5.77532 14.8153 5.54341 16.8586C4.36784 15.5544 3.64286 13.9078 3.64286 12.8319V10.5837C4.33511 11.4452 5.40273 12 6.60337 12C8.69057 12 10.3815 10.3294 10.3815 8.27031C10.3815 6.94687 9.68089 5.78706 8.62859 5.125H15.4132C14.3602 5.78706 13.6596 6.94687 13.6596 8.27031C13.6596 10.3294 15.3512 12 17.4384 12C18.6147 12 19.6642 11.4693 20.3571 10.6374V12.8319C20.3571 13.9078 19.6322 15.5544 18.4566 16.8586ZM15.136 16.8902C15.136 16.4399 15.5072 16.0734 15.9634 16.0734C16.4195 16.0734 16.79 16.4399 16.79 16.8902C16.79 17.3412 16.4195 17.7062 15.9634 17.7062C15.5072 17.7062 15.136 17.3412 15.136 16.8902ZM10.1754 15.9566C10.1754 15.0559 10.9164 14.3237 11.8287 14.3237C12.7417 14.3237 13.4827 15.0559 13.4827 15.9566C13.4827 16.8586 12.7417 17.5887 11.8287 17.5887C10.9164 17.5887 10.1754 16.8586 10.1754 15.9566ZM6.86802 16.8902C6.86802 16.4399 7.23852 16.0734 7.69468 16.0734C8.15084 16.0734 8.52134 16.4399 8.52134 16.8902C8.52134 17.3412 8.15084 17.7062 7.69468 17.7062C7.23852 17.7062 6.86802 17.3412 6.86802 16.8902ZM6.60338 6.20781C7.75736 6.20781 8.69266 7.13112 8.69266 8.27031C8.69266 9.40881 7.75736 10.3328 6.60338 10.3328C5.44939 10.3328 4.51409 9.40881 4.51409 8.27031C4.51409 7.13112 5.44939 6.20781 6.60338 6.20781ZM17.4384 6.20781C18.5924 6.20781 19.5277 7.13112 19.5277 8.27031C19.5277 9.40881 18.5924 10.3328 17.4384 10.3328C16.2844 10.3328 15.3491 9.40881 15.3491 8.27031C15.3491 7.13112 16.2844 6.20781 17.4384 6.20781ZM20.1893 5.719C19.1293 4.51037 17.6216 3.75 15.9432 3.75H8.05752C4.85046 3.75 2.25 6.50962 2.25 9.91344V12.8319C2.25 15.4526 5.2335 20.25 9.4852 20.25H14.5155C18.7665 20.25 21.75 15.4526 21.75 12.8319V9.91344C21.75 8.57212 21.3419 7.33394 20.6559 6.32194C20.5208 6.10469 20.3648 5.90256 20.1893 5.719Z"
          fill="#263543"/>
</svg>
