<svg width="24" height="24" viewBox="0 0 24 24" fill="none" xmlns="http://www.w3.org/2000/svg">
    <path fill-rule="evenodd" clip-rule="evenodd"
          d="M17.2434 15.6256C16.4165 15.6256 15.7453 14.974 15.7453 14.1713C15.7453 13.3685 16.4165 12.717 17.2434 12.717C18.0704 12.717 18.7416 13.3685 18.7416 14.1713C18.7416 14.974 18.0704 15.6256 17.2434 15.6256ZM13.4981 8.86891C13.4981 7.66402 14.5041 6.68747 15.7453 6.68747C16.9865 6.68747 17.9925 7.66402 17.9925 8.86891C17.9925 10.0731 16.9865 11.0503 15.7453 11.0503C14.5041 11.0503 13.4981 10.0731 13.4981 8.86891ZM12 17.3133C10.7588 17.3133 9.75281 16.3367 9.75281 15.1318C9.75281 13.9269 10.7588 12.9504 12 12.9504C13.2412 12.9504 14.2472 13.9269 14.2472 15.1318C14.2472 16.3367 13.2412 17.3133 12 17.3133ZM8.25468 11.0503C7.01348 11.0503 6.00749 10.0731 6.00749 8.86891C6.00749 7.66402 7.01348 6.68747 8.25468 6.68747C9.49588 6.68747 10.5019 7.66402 10.5019 8.86891C10.5019 10.0731 9.49588 11.0503 8.25468 11.0503ZM6.75655 15.6256C5.92959 15.6256 5.25843 14.974 5.25843 14.1713C5.25843 13.3685 5.92959 12.717 6.75655 12.717C7.58352 12.717 8.25468 13.3685 8.25468 14.1713C8.25468 14.974 7.58352 15.6256 6.75655 15.6256ZM14.6022 3.54474C14.3461 2.37694 13.2794 1.5 12 1.5C10.7206 1.5 9.65468 2.37694 9.39775 3.54474C5.69663 4.62819 3 7.95997 3 11.9069C3 15.8452 5.68464 19.1718 9.37378 20.2633C9.54981 21.5242 10.6524 22.5 12 22.5C13.3476 22.5 14.4502 21.5242 14.6262 20.2633C18.3154 19.1718 21 15.8452 21 11.9069C21 7.95997 18.3034 4.62819 14.6022 3.54474Z"
          fill="#263543"/>
</svg>
