<svg xmlns="http://www.w3.org/2000/svg" width="410" height="90">
    <path d="M141.299 29.789a23.86 23.86 0 0 0-23.856 23.856c0 13.176 10.68 23.859 23.856 23.859s23.858-10.683 23.858-23.859c-.016-13.17-10.688-23.842-23.858-23.856zm0 36.328c-6.886 0-12.47-5.584-12.47-12.472a12.47 12.47 0 0 1 12.47-12.469c6.888 0 12.472 5.581 12.472 12.469a12.49 12.49 0 0 1-12.472 12.472zm84.069 11.384h11.376l.003-29.008a20.07 20.07 0 0 0-.454-4.274l-.208-.867c-2.245-8.275-10.29-14.003-19.144-13.637a19.35 19.35 0 0 0-11.477 4.533l-.445.36-.448-.36c-3.23-2.723-7.259-4.315-11.478-4.533-8.858-.371-16.898 5.362-19.144 13.637-.069.261-.133.531-.208.869-.306 1.403-.458 2.835-.45 4.272v29.008h11.378V48.984c0-4.032 3.259-7.307 7.291-7.323s7.32 3.227 7.355 7.259c.002.021.002.043.002.064v28.517h11.4l.003-28.584c.035-4.032 3.323-7.277 7.357-7.258s7.291 3.293 7.291 7.325zm-123.325.011H116.8l-6.603-11.397c-1.429 0-7.312-.008-7.77-.008-3.67 0-6.867-2.654-7.126-5.912l-.088-1.536V41.475h14.982l5.856-10.302H95.213V12.485l-11.397 7.886v10.253h-7.192v11.397h7.192l.011 15.563.002.933.043.867c.392 7.557 4.112 13.12 11.061 16.536a16.72 16.72 0 0 0 6.475 1.584h.635zm207.512-47.723c-13.176 0-23.859 10.68-23.859 23.856s10.683 23.859 23.859 23.859 23.856-10.683 23.856-23.859c-.014-13.168-10.688-23.842-23.856-23.856zm0 36.328c-6.888 0-12.472-5.584-12.472-12.472s5.584-12.469 12.472-12.469a12.47 12.47 0 0 1 12.469 12.469c-.008 6.886-5.587 12.464-12.469 12.472zm84.066 11.384h11.376L405 48.493c.005-1.437-.147-2.869-.453-4.274l-.208-.867c-2.246-8.275-10.291-14.003-19.144-13.637-4.216.218-8.248 1.81-11.475 4.533l-.448.36-.448-.36c-3.227-2.723-7.259-4.315-11.475-4.533-8.861-.371-16.898 5.362-19.144 13.637a16.44 16.44 0 0 0-.21.869c-.304 1.403-.456 2.835-.451 4.272l.003 29.008h11.376V48.984c0-4.032 3.258-7.307 7.293-7.323s7.32 3.227 7.355 7.259c0 .016.002.04.002.064v28.517h11.398l.002-28.584a7.33 7.33 0 0 1 7.358-7.253c4.032.019 7.288 3.291 7.29 7.32zm-123.322.011h14.757l-6.603-11.397c-1.432 0-7.314-.008-7.773-.008-3.669 0-6.864-2.654-7.125-5.912l-.088-1.536V41.475h14.984l5.853-10.302h-20.837V12.485l-11.398 7.886v10.253h-7.189v11.397h7.189l.011 15.563.005.933.043.867c.389 7.557 4.109 13.12 11.059 16.536 2.029.957 4.232 1.496 6.474 1.584h.638z"
          stroke="#fff" stroke-width=".5"/>
    <path d="M31.517 83.507l10.166-17.606H21.355l10.162 17.606zm0-77.014C16.872 6.493 5 18.365 5 33.011s11.872 26.52 26.517 26.52 26.52-11.875 26.52-26.52c-.018-14.638-11.88-26.502-26.52-26.518zm0 40.379c-7.656 0-13.861-6.205-13.861-13.861s6.205-13.862 13.861-13.862 13.862 6.206 13.862 13.862c-.008 7.653-6.208 13.853-13.862 13.861z"
          fill="#e41400"/>
</svg>
