<svg xmlns="http://www.w3.org/2000/svg" width="120" height="139.999">
    <defs>
        <clipPath id="A">
            <path d="M-6-8h132v155.26H-6zM60 5.926c29.824 0 54 23.88 54 53.334 0 17.926-8.948 33.79-22.702 43.467l-2.268 1.592c-10.172 7.12-21.926 15.342-29.03 27.272-7.108-11.93-18.858-20.156-29.03-27.272l-2.27-1.592C14.95 93.05 6 77.186 6 59.26 6 29.806 30.176 5.926 60 5.925zM60 0C26.862 0 0 26.53 0 59.26c0 19.923 9.954 37.55 25.218 48.293l2.016 1.415c11.13 7.803 22.634 15.872 28.816 27.818 1.706 3.299 6.194 3.299 7.9 0 6.184-11.946 17.686-20.015 28.816-27.818h-.004l2.016-1.415C110.046 96.81 120 79.183 120 59.26 120 26.53 93.138 0 60 0z"/>
        </clipPath>
        <filter id="B">
            <feGaussianBlur in="SourceAlpha" stdDeviation="2.5"/>
            <feOffset dy="2" result="A"/>
            <feFlood flood-color="#fff"/>
            <feComposite in2="A" operator="in"/>
        </filter>
        <path id="C"
              d="M56.877 29.612c.015-5.232 6.879-5.232 6.879.15v21.971L90.51 70.22v8.12L63.879 68.267v16.414l6.161 5.547v6.409l-9.503-3.389-9.499 3.389v-6.409l6.099-5.547V68.267L30.49 78.34v-8.12l26.387-18.487z"/>
    </defs>
    <path d="M63.95 136.79c6.556-12.67 19.098-20.979 30.828-29.233C110.046 96.81 120 79.183 120 59.26 120 26.53 93.138 0 60 0S0 26.53 0 59.26c0 19.923 9.954 37.55 25.22 48.293 11.734 8.258 24.274 16.564 30.83 29.233 1.706 3.299 6.194 3.299 7.9 0z"
          fill="#003056"/>
    <path d="M60 0c33.138 0 60 26.53 60 59.26 0 19.923-9.954 37.55-25.222 48.293l-2.016 1.415h.004c-11.13 7.803-22.632 15.872-28.816 27.818-1.706 3.299-6.194 3.299-7.9 0-6.182-11.946-17.686-20.015-28.816-27.818l-2.016-1.415C9.954 96.81 0 79.183 0 59.26 0 26.53 26.862 0 60 0zm0 5.925C30.176 5.926 6 29.806 6 59.26c0 17.926 8.95 33.79 22.7 43.467l2.27 1.592c10.172 7.116 21.922 15.342 29.03 27.272 7.104-11.93 18.858-20.152 29.03-27.272l2.268-1.592C105.052 93.05 114 77.186 114 59.26c0-29.454-24.176-53.334-54-53.334z"
          clip-path="url(#A)" filter="url(#B)" fill="rgba(0,0,0,0.75)"/>
    <path d="M91.298 102.727C105.052 93.05 114 77.186 114 59.26c0-29.454-24.176-53.334-54-53.334S6 29.806 6 59.26c0 17.926 8.95 33.79 22.7 43.467l2.27 1.592c10.172 7.116 21.922 15.342 29.03 27.272 7.104-11.93 18.858-20.152 29.03-27.272l2.268-1.592zm1.468 6.241c-11.13 7.803-22.632 15.872-28.816 27.818-1.706 3.299-6.194 3.299-7.9 0-6.182-11.946-17.686-20.015-28.816-27.818l-2.016-1.415C9.954 96.81 0 79.183 0 59.26 0 26.53 26.862 0 60 0s60 26.53 60 59.26c0 19.923-9.954 37.55-25.222 48.293l-2.016 1.415z"
          fill="#003056"/>
    <use href="#C" fill="#fff"/>
    <use href="#C" fill-opacity="0" stroke="#ad0000" stroke-width="3"/>
</svg>
