<svg xmlns="http://www.w3.org/2000/svg" width="120" height="139.999">
    <defs>
        <clipPath id="A">
            <path d="M-6-7.322h132v153.42H-6zM60 6.526c29.824 0 54 23.564 54 52.629 0 17.69-8.948 33.344-22.702 42.893l-2.268 1.571C78.858 110.644 67.104 118.758 60 130.53c-7.108-11.772-18.858-19.89-29.03-26.911l-2.27-1.571C14.95 92.499 6 76.845 6 59.155 6 30.09 30.176 6.526 60 6.525zm0-5.848c-33.138 0-60 26.18-60 58.477 0 19.66 9.954 37.054 25.218 47.655l2.016 1.396c11.13 7.7 22.634 15.663 28.816 27.451 1.706 3.255 6.194 3.255 7.9 0 6.184-11.788 17.686-19.751 28.816-27.451h-.004l2.016-1.396C110.046 96.209 120 78.815 120 59.155 120 26.858 93.138.678 60 .678z"/>
        </clipPath>
        <filter id="B">
            <feGaussianBlur in="SourceAlpha" stdDeviation="2.5"/>
            <feOffset dy="2" result="A"/>
            <feFlood flood-color="#ffc800"/>
            <feComposite in2="A" operator="in"/>
        </filter>
    </defs>
    <path d="M63.95 135.661c6.556-12.503 19.098-20.702 30.828-28.847C110.046 96.209 120 78.815 120 59.155 120 26.858 93.138.678 60 .678S0 26.858 0 59.155c0 19.66 9.954 37.054 25.22 47.655 11.734 8.149 24.274 16.345 30.83 28.847 1.706 3.255 6.194 3.255 7.9 0z"
          fill="#560000"/>
    <path d="M60 .678c33.138 0 60 26.18 60 58.477 0 19.66-9.954 37.054-25.222 47.655l-2.016 1.396h.004c-11.13 7.7-22.632 15.663-28.816 27.451-1.706 3.255-6.194 3.255-7.9 0-6.182-11.788-17.686-19.751-28.816-27.451l-2.016-1.396C9.954 96.209 0 78.815 0 59.155 0 26.858 26.862.678 60 .678zm0 5.847C30.176 6.526 6 30.09 6 59.155c0 17.69 8.95 33.344 22.7 42.893l2.27 1.571C41.142 110.64 52.892 118.758 60 130.53c7.104-11.772 18.858-19.886 29.03-26.911l2.268-1.571C105.052 92.499 114 76.845 114 59.155 114 30.09 89.824 6.526 60 6.526z"
          clip-path="url(#A)" filter="url(#B)" fill="rgba(0,0,0,0.75)"/>
    <path d="M91.298 102.048C105.052 92.499 114 76.845 114 59.155 114 30.09 89.824 6.526 60 6.526S6 30.09 6 59.155c0 17.69 8.95 33.344 22.7 42.893l2.27 1.571C41.142 110.64 52.892 118.758 60 130.53c7.104-11.772 18.858-19.886 29.03-26.911l2.268-1.571zm1.468 6.158c-11.13 7.7-22.632 15.663-28.816 27.451-1.706 3.255-6.194 3.255-7.9 0-6.182-11.788-17.686-19.751-28.816-27.451l-2.016-1.396C9.954 96.209 0 78.815 0 59.155 0 26.858 26.862.678 60 .678s60 26.18 60 58.477c0 19.66-9.954 37.054-25.222 47.655l-2.016 1.396z"
          fill="#560000"/>
    <path d="M56.377 29.112c.015-5.232 6.879-5.232 6.879.15v21.971L90.01 69.72v8.12L63.379 67.767v16.414l6.161 5.547v6.409l-9.503-3.389-9.499 3.389v-6.409l6.099-5.547V67.767L29.99 77.84v-8.12l26.387-18.487z"
          fill="#ffc400"/>
</svg>
