<svg xmlns="http://www.w3.org/2000/svg" width="120" height="139.999">
    <defs>
        <clipPath id="A">
            <path d="M-6-8h132v154.214H-6zM60 5.881c29.824 0 54 23.701 54 52.933 0 17.792-8.948 33.537-22.702 43.141l-2.268 1.581c-10.172 7.065-21.926 15.226-29.03 27.066-7.108-11.84-18.858-20.005-29.03-27.067l-2.27-1.58C14.95 92.351 6 76.606 6 58.814 6 29.582 30.176 5.881 60 5.881zM60 0C26.862 0 0 26.331 0 58.814c0 19.774 9.954 37.269 25.218 47.931l2.016 1.404c11.13 7.745 22.634 15.753 28.816 27.609a4.4 4.4 0 0 0 7.9 0c6.184-11.856 17.686-19.864 28.816-27.609h-.004l2.016-1.404C110.046 96.083 120 78.588 120 58.814 120 26.331 93.138 0 60 0z"/>
        </clipPath>
        <filter id="B">
            <feGaussianBlur in="SourceAlpha" stdDeviation="2.5"/>
            <feOffset dy="2" result="A"/>
            <feFlood flood-color="#fff"/>
            <feComposite in2="A" operator="in"/>
        </filter>
        <path id="C"
              d="M56.877 29.612c.015-5.232 6.879-5.232 6.879.15v21.971L90.51 70.22v8.12L63.879 68.267v16.414l6.161 5.547v6.409l-9.503-3.389-9.499 3.389v-6.409l6.099-5.547V68.267L30.49 78.34v-8.12l26.387-18.487z"/>
    </defs>
    <path d="M63.95 135.762c6.556-12.574 19.098-20.821 30.828-29.013C110.046 96.083 120 78.588 120 58.814 120 26.331 93.138 0 60 0S0 26.331 0 58.814c0 19.774 9.954 37.269 25.22 47.931 11.734 8.196 24.274 16.44 30.83 29.013a4.4 4.4 0 0 0 7.9 0z"
          fill="#135600"/>
    <path d="M60 0c33.138 0 60 26.331 60 58.814 0 19.774-9.954 37.269-25.222 47.931l-2.016 1.404h.004c-11.13 7.745-22.632 15.753-28.816 27.609a4.4 4.4 0 0 1-7.9 0c-6.182-11.856-17.686-19.864-28.816-27.609l-2.016-1.404C9.954 96.083 0 78.588 0 58.814 0 26.331 26.862 0 60 0zm0 5.881c-29.824 0-54 23.701-54 52.933 0 17.792 8.95 33.537 22.7 43.141l2.27 1.58c10.172 7.062 21.922 15.227 29.03 27.067 7.104-11.84 18.858-20.001 29.03-27.066l2.268-1.581C105.052 92.351 114 76.606 114 58.814c0-29.232-24.176-52.933-54-52.933z"
          clip-path="url(#A)" filter="url(#B)" fill="rgba(0,0,0,0.75)"/>
    <path d="M91.298 101.955C105.052 92.351 114 76.606 114 58.814c0-29.232-24.176-52.933-54-52.933S6 29.582 6 58.814c0 17.792 8.95 33.537 22.7 43.141l2.27 1.581c10.172 7.061 21.922 15.226 29.03 27.066 7.104-11.84 18.858-20.001 29.03-27.066l2.268-1.581zm1.468 6.194c-11.13 7.745-22.632 15.753-28.816 27.609a4.4 4.4 0 0 1-7.9 0c-6.182-11.856-17.686-19.864-28.816-27.609l-2.016-1.404C9.954 96.083 0 78.588 0 58.814 0 26.331 26.862 0 60 0s60 26.331 60 58.814c0 19.774-9.954 37.269-25.222 47.931l-2.016 1.404z"
          fill="#135600"/>
    <use href="#C" fill="#950101"/>
    <use href="#C" fill-opacity="0" stroke="#fff" stroke-width="3"/>
</svg>
