<svg version="1.1" xmlns="http://www.w3.org/2000/svg" x="0" y="0" width="150" height="28.88" viewBox="0, 0, 150, 28.88">
    <g id="Layer_2">
        <g>
            <path d="M51.112,8.736 C46.171,8.736 42.166,12.741 42.166,17.682 C42.166,22.623 46.171,26.629 51.112,26.629 C56.053,26.629 60.059,22.623 60.059,17.682 C60.053,12.743 56.051,8.741 51.112,8.736 z M51.112,22.359 C48.53,22.359 46.436,20.265 46.436,17.682 C46.436,15.099 48.53,13.006 51.112,13.006 C53.695,13.006 55.789,15.099 55.789,17.682 C55.786,20.264 53.694,22.356 51.112,22.359 z"
                  fill="#000000"/>
            <path d="M82.638,26.628 L86.904,26.628 L86.905,15.75 C86.906,15.211 86.849,14.674 86.735,14.147 C86.708,14.02 86.683,13.92 86.657,13.822 C85.815,10.719 82.798,8.571 79.478,8.708 C77.896,8.79 76.385,9.387 75.174,10.408 L75.007,10.543 L74.839,10.408 C73.628,9.387 72.117,8.79 70.535,8.708 C67.213,8.569 64.198,10.719 63.356,13.822 C63.33,13.92 63.306,14.021 63.278,14.148 C63.163,14.674 63.106,15.211 63.109,15.75 L63.109,26.628 L67.376,26.628 L67.376,15.934 C67.376,14.422 68.598,13.194 70.11,13.188 C71.622,13.181 72.855,14.398 72.868,15.91 C72.869,15.918 72.869,15.926 72.869,15.934 L72.869,26.628 L77.144,26.628 L77.145,15.909 C77.158,14.397 78.391,13.18 79.904,13.187 C81.416,13.193 82.638,14.422 82.638,15.934 z"
                  fill="#000000"/>
            <path d="M36.391,26.632 L41.925,26.632 L39.449,22.358 C38.913,22.358 36.707,22.355 36.535,22.355 C35.159,22.355 33.96,21.36 33.863,20.138 C33.85,19.978 33.839,19.78 33.83,19.562 L33.83,13.118 L39.448,13.118 L41.644,9.255 L33.83,9.255 L33.83,2.247 L29.556,5.204 L29.556,9.049 L26.859,9.049 L26.859,13.323 L29.556,13.323 L29.56,19.159 C29.56,19.161 29.557,19.431 29.561,19.509 L29.577,19.834 C29.724,22.668 31.119,24.754 33.725,26.035 C34.486,26.394 35.312,26.596 36.153,26.629 L36.391,26.629 z"
                  fill="#000000"/>
            <path d="M114.208,8.736 C109.267,8.736 105.261,12.741 105.261,17.682 C105.261,22.623 109.267,26.629 114.208,26.629 C119.149,26.629 123.154,22.623 123.154,17.682 C123.149,12.744 119.146,8.741 114.208,8.736 z M114.208,22.359 C111.625,22.359 109.531,20.265 109.531,17.682 C109.531,15.099 111.625,13.006 114.208,13.006 C116.791,13.006 118.884,15.099 118.884,17.682 C118.881,20.264 116.789,22.356 114.208,22.359 z"
                  fill="#000000"/>
            <path d="M145.733,26.628 L149.999,26.628 L150,15.75 C150.002,15.211 149.945,14.674 149.83,14.147 C149.803,14.02 149.779,13.92 149.752,13.822 C148.91,10.719 145.893,8.571 142.573,8.708 C140.992,8.79 139.48,9.387 138.27,10.408 L138.102,10.543 L137.934,10.408 C136.724,9.387 135.212,8.79 133.631,8.708 C130.308,8.569 127.294,10.719 126.452,13.822 C126.425,13.92 126.401,14.021 126.373,14.148 C126.259,14.674 126.202,15.211 126.204,15.75 L126.205,26.628 L130.471,26.628 L130.471,15.934 C130.471,14.422 131.693,13.194 133.206,13.188 C134.718,13.181 135.951,14.398 135.964,15.91 C135.964,15.916 135.965,15.925 135.965,15.934 L135.965,26.628 L140.239,26.628 L140.24,15.909 C140.255,14.398 141.488,13.182 142.999,13.189 C144.511,13.196 145.732,14.423 145.733,15.934 z"
                  fill="#000000"/>
            <path d="M99.487,26.632 L105.021,26.632 L102.545,22.358 C102.008,22.358 99.802,22.355 99.63,22.355 C98.254,22.355 97.056,21.36 96.958,20.138 C96.946,19.978 96.934,19.78 96.925,19.562 L96.925,13.118 L102.544,13.118 L104.739,9.255 L96.925,9.255 L96.925,2.247 L92.651,5.204 L92.651,9.049 L89.955,9.049 L89.955,13.323 L92.651,13.323 L92.655,19.159 C92.655,19.161 92.653,19.431 92.657,19.509 L92.673,19.834 C92.819,22.668 94.214,24.754 96.82,26.035 C97.581,26.394 98.407,26.596 99.248,26.629 L99.487,26.629 z"
                  fill="#000000"/>
        </g>
        <g>
            <path d="M9.944,28.88 L13.756,22.278 L6.133,22.278 L9.944,28.88 z" fill="#E41400"/>
            <path d="M9.944,-0 C4.452,-0 -0,4.452 -0,9.944 C-0,15.436 4.452,19.889 9.944,19.889 C15.436,19.889 19.889,15.436 19.889,9.944 C19.882,4.455 15.434,0.006 9.944,-0 z M9.944,15.142 C7.073,15.142 4.746,12.815 4.746,9.944 C4.746,7.073 7.073,4.746 9.944,4.746 C12.815,4.746 15.142,7.073 15.142,9.944 C15.139,12.814 12.814,15.139 9.944,15.142 z"
                  fill="#E41400"/>
        </g>
    </g>
</svg>
