<svg width="24" height="24" viewBox="0 0 24 24" fill="none" xmlns="http://www.w3.org/2000/svg">
    <path fill-rule="evenodd" clip-rule="evenodd"
          d="M15.1027 7.854C14.2155 7.854 13.497 7.14375 13.497 6.267C13.497 5.391 14.2155 4.68075 15.1027 4.68075C15.9893 4.68075 16.7085 5.391 16.7085 6.267C16.7085 7.14375 15.9893 7.854 15.1027 7.854ZM12 17.9055C10.5818 17.9055 9.432 16.7685 9.432 15.3667C9.432 13.9635 10.5818 12.8272 12 12.8272C13.419 12.8272 14.5688 13.9635 14.5688 15.3667C14.5688 16.7685 13.419 17.9055 12 17.9055ZM17.3527 12.9142C16.4662 12.9142 15.7477 12.204 15.7477 11.3265C15.7477 10.4505 16.4662 9.74025 17.3527 9.74025C18.2393 9.74025 18.9578 10.4505 18.9578 11.3265C18.9578 12.204 18.2393 12.9142 17.3527 12.9142ZM6.648 12.9142C5.7615 12.9142 5.043 12.204 5.043 11.3265C5.043 10.4505 5.7615 9.74025 6.648 9.74025C7.5345 9.74025 8.253 10.4505 8.253 11.3265C8.253 12.204 7.5345 12.9142 6.648 12.9142ZM8.898 7.854C8.0115 7.854 7.293 7.14375 7.293 6.267C7.293 5.391 8.0115 4.68075 8.898 4.68075C9.7845 4.68075 10.503 5.391 10.503 6.267C10.503 7.14375 9.7845 7.854 8.898 7.854ZM12 2.25C7.02975 2.25 3 6.23475 3 11.1502C3 15.1702 5.697 18.564 9.399 19.668C9.65475 20.8575 10.7213 21.75 12 21.75C13.2795 21.75 14.346 20.8575 14.6025 19.668C18.3038 18.564 21 15.1702 21 11.1502C21 6.23475 16.971 2.25 12 2.25Z"
          fill="#263543"/>
</svg>
