<svg xmlns="http://www.w3.org/2000/svg" width="80" height="94" viewBox="0 0 40 47">
    <path d="M21.317 46.166c2.185-4.276 6.366-7.08 10.276-9.866C36.682 32.673 40 26.724 40 20 40 8.954 31.046 0 20 0S0 8.954 0 20c0 6.724 3.318 12.673 8.407 16.299 3.911 2.787 8.091 5.59 10.276 9.866.569 1.113 2.065 1.113 2.634 0z"
          fill="#1988cf"/>
    <path d="M30.433 34.67C35.017 31.404 38 26.05 38 20c0-9.941-8.059-18-18-18S2 10.059 2 20c0 6.05 2.983 11.404 7.567 14.67l.756.537c3.391 2.402 7.308 5.178 9.677 9.204 2.368-4.026 6.286-6.801 9.677-9.204l.756-.537zm.489 2.106c-3.71 2.634-7.544 5.357-9.605 9.389-.569 1.113-2.065 1.113-2.634 0-2.06-4.032-5.895-6.755-9.605-9.389l-.672-.477C3.318 32.673 0 26.724 0 20 0 8.954 8.954 0 20 0s20 8.954 20 20c0 6.724-3.318 12.673-8.407 16.299l-.672.477z"
          fill-opacity=".3"/>
</svg>
