<svg width="40" height="47" viewBox="0 0 40 47" xmlns="http://www.w3.org/2000/svg">
    <path d="M21.2446 28.9998C20.7763 29.0085 20.3174 28.8677 19.9344 28.598C19.5514 28.3283 19.2643 27.9437 19.1146 27.4998L18.0646 24.3648C17.8849 23.8015 17.5754 23.2881 17.1612 22.8661C16.747 22.4441 16.2395 22.1251 15.6796 21.9348L12.4996 20.8848C12.0545 20.7372 11.6685 20.4506 11.3985 20.0671C11.1284 19.6837 10.9886 19.2237 10.9996 18.7548C10.9901 18.2845 11.1303 17.8233 11.3999 17.4378C11.6695 17.0522 12.0546 16.7623 12.4996 16.6098L24.4996 12.6198C24.9015 12.4749 25.3363 12.4473 25.7533 12.5404C26.1702 12.6334 26.552 12.8433 26.8541 13.1453C27.1562 13.4474 27.366 13.8293 27.4591 14.2462C27.5522 14.6631 27.5246 15.098 27.3796 15.4998L23.3896 27.4998C23.2371 27.9449 22.9472 28.33 22.5617 28.5996C22.1762 28.8692 21.715 29.0093 21.2446 28.9998V28.9998Z"
          fill="#F4F5F6"/>
</svg>
