<svg xmlns="http://www.w3.org/2000/svg" width="32" height="32">
    <g id="main">
        <path fill-rule="evenodd"
              d="M11.389 4H9.025a.86.86 0 0 0-.517.173l-.001-.001a.5.5 0 0 1-.464.059l-.028-.011a.5.5 0 0 1-.129-.83A1.86 1.86 0 0 1 9.025 3h2.364a2 2 0 0 1 1.789 1.106l1.02 2.04c.471.176.802.63.802 1.156v.803c0 .543 0 .815-.071 1.038a1.5 1.5 0 0 1-.914.953c-.219.08-.491.092-1.034.114l-1.481.062v-.166-.803a2.23 2.23 0 0 0-1.055-1.897l-.74-1.479 2.326.033h.955l-.703-1.406A1 1 0 0 0 11.389 4zM12 8.4a1 1 0 1 1 2 0 .5.5 0 0 1-.5.5h-1a.5.5 0 0 1-.5-.5z"/>
        <path d="M11.833 11.115c0-.109.089-.198.198-.198h1.979c.109 0 .198.089.198.198 0 .328-.266.594-.594.594h-1.187c-.328 0-.594-.266-.594-.594z"/>
        <path fill-rule="evenodd"
              d="M1.802 8.146C1.331 8.321 1 8.776 1 9.302v.803c0 .543 0 .815.071 1.038a1.5 1.5 0 0 0 .914.953c.219.08.491.092 1.034.114l2.731.114 2.731-.114c.543-.023.814-.034 1.034-.114a1.5 1.5 0 0 0 .914-.953c.071-.223.071-.494.071-1.038v-.803c0-.526-.331-.98-.802-1.156l-1.02-2.04A2 2 0 0 0 6.889 5H4.611a2 2 0 0 0-1.789 1.106l-1.02 2.04zM6.889 6H4.611a1 1 0 0 0-.894.553l-.703 1.406h.955 3.563.955l-.703-1.406A1 1 0 0 0 6.889 6zM2 10.4a1 1 0 1 1 2 0 .5.5 0 0 1-.5.5h-1a.5.5 0 0 1-.5-.5zm6.5-1a1 1 0 0 0-1 1 .5.5 0 0 0 .5.5h1a.5.5 0 0 0 .5-.5 1 1 0 0 0-1-1z"/>
        <path d="M1.792 13.115c0-.109.089-.198.198-.198h1.979c.109 0 .198.089.198.198 0 .328-.266.594-.594.594H2.385c-.328 0-.594-.266-.594-.594zm5.739-.198c-.109 0-.198.089-.198.198 0 .328.266.594.594.594h1.188c.328 0 .594-.266.594-.594 0-.109-.089-.198-.198-.198h-1.98z"/>
    </g>
</svg>
